<?xml version="1.0" encoding="utf-8"?>
<svg version="1.1" id="Layer_1" xmlns="http://www.w3.org/2000/svg" xmlns:xlink="http://www.w3.org/1999/xlink" x="0px" y="0px"
	 viewBox="0 0 1814.921 1670.641" enable-background="new 0 0 1814.921 1670.641" xml:space="preserve">
<g id="Elegant_Justice_Scales">
</g>
<g>
	<circle cx="901.728" cy="1546.532" r="58.58"/>
	<circle cx="911.57" cy="423.318" r="58.889"/>
	<circle cx="284.459" cy="1221.375" r="58.715"/>
	<circle cx="760.946" cy="1571.173" r="58.788"/>
	<circle cx="1457.588" cy="1223.479" r="59.324"/>
	<circle cx="908.148" cy="1343.321" r="58.679"/>
	<circle cx="1017.747" cy="1588.698" r="39.845"/>
	<circle cx="1671.56" cy="1201.952" r="39.369"/>
	<circle cx="415.155" cy="1227.123" r="39.266"/>
	<circle cx="905.397" cy="145.048" r="40.319"/>
	<circle cx="899.426" cy="1097.054" r="39.496"/>
	<circle cx="152.312" cy="1210.372" r="39.489"/>
	<circle cx="1128.5" cy="1587.746" r="39.465"/>
	<circle cx="910.369" cy="985.631" r="39.1"/>
	<circle cx="912.866" cy="1183.24" r="39.812"/>
	<circle cx="521.295" cy="1205.626" r="39.245"/>
	<circle cx="908.085" cy="556.958" r="39.167"/>
	<circle cx="923.635" cy="228.798" r="39.555"/>
	<circle cx="1561.292" cy="1238.203" r="39.891"/>
	<circle cx="924.932" cy="1450.675" r="39.382"/>
	<circle cx="1317.806" cy="1209.546" r="39.054"/>
	<circle cx="644.772" cy="1589.205" r="40.769"/>
	<circle cx="530.252" cy="511.304" r="26.31"/>
	<circle cx="1081.528" cy="407.977" r="26.85"/>
	<circle cx="664.759" cy="431.526" r="26.604"/>
	<circle cx="1164.593" cy="439.06" r="26.478"/>
	<circle cx="908.338" cy="665.612" r="27.322"/>
	<circle cx="899.759" cy="868.908" r="26.317"/>
	<circle cx="1208.971" cy="1606.481" r="26.408"/>
	<circle cx="1017.866" cy="396.962" r="26.078"/>
	<circle cx="826.039" cy="397.533" r="26.29"/>
	<circle cx="613.756" cy="455.403" r="26.424"/>
	<circle cx="925.089" cy="333.573" r="26.5"/>
	<circle cx="1278.386" cy="505.851" r="26.396"/>
	<circle cx="901.526" cy="789.93" r="27.974"/>
	<circle cx="906.683" cy="1251.719" r="27.506"/>
	<circle cx="765.365" cy="399.695" r="26.695"/>
	<circle cx="1606.627" cy="1190.326" r="26.044"/>
	<circle cx="903.081" cy="725.225" r="26.097"/>
	<circle cx="360.55" cy="1188.511" r="17.436"/>
	<circle cx="912.907" cy="79.217" r="17.529"/>
	<circle cx="1013.252" cy="1530.181" r="18.263"/>
	<circle cx="208.389" cy="1219.776" r="17.372"/>
	<circle cx="1260.16" cy="1193.34" r="18.96"/>
	<circle cx="356.75" cy="583.846" r="17.839"/>
	<circle cx="1375.853" cy="1191.896" r="19.372"/>
	<circle cx="576.076" cy="483.889" r="17.586"/>
	<circle cx="471.975" cy="1239.061" r="18.707"/>
	<circle cx="476.191" cy="549.479" r="19.371"/>
	<circle cx="945.77" cy="505.43" r="20.417"/>
	<circle cx="1125.548" cy="419.104" r="17.372"/>
	<circle cx="1455.228" cy="600.23" r="18.231"/>
	<circle cx="865.073" cy="1462.473" r="18.259"/>
	<circle cx="897.16" cy="292.706" r="17.861"/>
	<circle cx="894.099" cy="926.324" r="18.591"/>
	<circle cx="1064.088" cy="1542.779" r="17.428"/>
	<circle cx="871.734" cy="197.262" r="17.803"/>
	<circle cx="1072.889" cy="1609.259" r="17.595"/>
	<circle cx="1633.438" cy="1245.384" r="18.421"/>
	<circle cx="883.366" cy="348.699" r="17.881"/>
	<circle cx="920.375" cy="1042.817" r="18.01"/>
	<circle cx="1370.874" cy="569.119" r="18.38"/>
	<circle cx="1381.132" cy="1243.446" r="19.634"/>
	<circle cx="466.512" cy="1185.039" r="18.541"/>
	<circle cx="956.515" cy="1609.134" r="17.642"/>
	<circle cx="1731.001" cy="1188.443" r="18.127"/>
	<circle cx="1232.379" cy="473.707" r="17.621"/>
	<circle cx="872.357" cy="498.212" r="18.193"/>
	<circle cx="218.012" cy="1258.462" r="17.381"/>
	<circle cx="862.726" cy="1404.656" r="17.562"/>
	<circle cx="364.186" cy="1258.966" r="17.559"/>
	<circle cx="878.534" cy="255.675" r="12.947"/>
	<circle cx="884.703" cy="1035.216" r="11.85"/>
	<circle cx="1395.942" cy="590.781" r="12.28"/>
	<circle cx="436.398" cy="581.556" r="14.042"/>
	<circle cx="704.898" cy="427.591" r="12.678"/>
	<circle cx="1104.152" cy="1533.894" r="11.59"/>
	<circle cx="979.548" cy="377.623" r="11.78"/>
	<circle cx="1420.47" cy="576.253" r="11.807"/>
	<circle cx="1346.048" cy="549.598" r="11.91"/>
	<circle cx="836.08" cy="1579.431" r="14.849"/>
	<circle cx="440.565" cy="556.268" r="11.587"/>
	<circle cx="844.215" cy="1621.656" r="11.7"/>
	<circle cx="925.475" cy="1617.814" r="11.818"/>
	<circle cx="1315.58" cy="549.582" r="12.691"/>
	<circle cx="1236.947" cy="1173.367" r="11.663"/>
	<circle cx="715.839" cy="405.934" r="11.587"/>
	<circle cx="980.341" cy="1536.164" r="13.643"/>
	<circle cx="396.349" cy="1177.947" r="13.384"/>
	<circle cx="699.385" cy="1619.799" r="12.821"/>
	<circle cx="964.977" cy="1516.153" r="11.587"/>
	<circle cx="688.478" cy="1550.983" r="11.845"/>
	<circle cx="905.132" cy="496.758" r="12.085"/>
	<circle cx="866.78" cy="527.466" r="11.587"/>
	<circle cx="872.174" cy="1282.963" r="11.587"/>
	<circle cx="817.483" cy="1523.766" r="12.267"/>
	<circle cx="866.263" cy="1229.426" r="11.659"/>
	<circle cx="924.781" cy="897.915" r="11.746"/>
	<circle cx="73.542" cy="1185.301" r="12.186"/>
	<circle cx="870.887" cy="1144.963" r="12.686"/>
	<circle cx="954.983" cy="188.39" r="11.587"/>
	<circle cx="579.04" cy="1618.683" r="13.525"/>
	<circle cx="1248.753" cy="1614.2" r="11.882"/>
	<circle cx="947.07" cy="1244.992" r="13.437"/>
	<circle cx="1179.239" cy="1576.256" r="12.558"/>
	<circle cx="308.394" cy="594.244" r="17.099"/>
	<circle cx="1345.858" cy="1252.658" r="12.38"/>
	<circle cx="312.842" cy="560.756" r="14.343"/>
	<circle cx="732.814" cy="429.414" r="12.688"/>
	<circle cx="928.414" cy="282.922" r="13.735"/>
	<circle cx="870.506" cy="1616.972" r="11.663"/>
	<circle cx="419.048" cy="1174.178" r="8.098"/>
	<circle cx="517.51" cy="542.868" r="7.728"/>
	<circle cx="1498.861" cy="559.918" r="8.663"/>
	<circle cx="878.378" cy="310.085" r="7.728"/>
	<circle cx="875.878" cy="276.585" r="7.728"/>
	<circle cx="968.366" cy="1554.363" r="8.142"/>
	<circle cx="819.365" cy="1614.367" r="8.933"/>
	<circle cx="221.313" cy="1188.638" r="9.525"/>
	<circle cx="954.615" cy="350.888" r="7.728"/>
	<circle cx="600.183" cy="491.614" r="7.728"/>
	<circle cx="942.097" cy="1029.01" r="7.728"/>
	<circle cx="888.609" cy="627.253" r="8.26"/>
	<circle cx="961.045" cy="1491.234" r="8.158"/>
	<circle cx="605.292" cy="1617.37" r="7.728"/>
	<circle cx="920.151" cy="834.931" r="9.459"/>
	<circle cx="1519.276" cy="1172.603" r="10.743"/>
	<circle cx="1171.615" cy="1543.92" r="8.375"/>
	<circle cx="862.775" cy="326.384" r="7.822"/>
	<circle cx="1061.686" cy="1509.745" r="8.475"/>
	<circle cx="935.468" cy="943.524" r="9.371"/>
	<circle cx="459.549" cy="575.515" r="9.884"/>
	<circle cx="1404.802" cy="1265.817" r="7.966"/>
	<circle cx="1239.836" cy="1590.62" r="8.295"/>
	<circle cx="1276.369" cy="1620.372" r="8.01"/>
	<circle cx="199.058" cy="1177.776" r="7.781"/>
	<circle cx="959.291" cy="1407.213" r="11.618"/>
	<circle cx="936.143" cy="1278.747" r="11.703"/>
	<circle cx="503.289" cy="549.226" r="7.728"/>
	<circle cx="708.09" cy="1530.792" r="7.728"/>
	<circle cx="571.783" cy="1187.76" r="7.903"/>
	<circle cx="446.979" cy="1264.012" r="7.78"/>
	<circle cx="918.025" cy="608.226" r="12.857"/>
	<circle cx="193.365" cy="1243.144" r="9.144"/>
	<circle cx="937.948" cy="926.605" r="7.728"/>
	<circle cx="347.705" cy="1278.145" r="7.728"/>
	<circle cx="984.157" cy="1624.001" r="8.825"/>
	<circle cx="399.74" cy="576.813" r="10.415"/>
	<circle cx="1333.025" cy="524.709" r="9.523"/>
	<circle cx="1517.708" cy="578.227" r="7.762"/>
	<circle cx="336.501" cy="1174.828" r="10.233"/>
	<circle cx="1550.073" cy="1188.056" r="10.003"/>
	<circle cx="94.444" cy="1196.739" r="8.056"/>
	<circle cx="849.977" cy="458.999" r="8.201"/>
	<circle cx="933.707" cy="771.796" r="8.369"/>
	<circle cx="1390.122" cy="1271.365" r="7.728"/>
	<circle cx="881.401" cy="820.957" r="9.008"/>
	<circle cx="1494.288" cy="544.163" r="7.743"/>
	<circle cx="1493.76" cy="610.734" r="9.399"/>
	<circle cx="489.138" cy="521.834" r="11.156"/>
	<circle cx="1312.806" cy="514.307" r="7.768"/>
	<circle cx="697.571" cy="1597.693" r="9.36"/>
	<circle cx="228.313" cy="1172.869" r="7.728"/>
	<circle cx="1304.395" cy="530.299" r="8.729"/>
	<circle cx="939.369" cy="1061.723" r="8.34"/>
	<circle cx="863.203" cy="1248.571" r="7.728"/>
	<circle cx="1244.38" cy="503.006" r="7.728"/>
	<circle cx="874.684" cy="1018.077" r="8.003"/>
	<circle cx="949.583" cy="1110.432" r="7.883"/>
	<circle cx="1506.53" cy="599.319" r="7.728"/>
	<circle cx="1070.884" cy="1582.397" r="9.341"/>
	<circle cx="970.672" cy="1426.171" r="8.18"/>
	<circle cx="529.886" cy="1624.855" r="8.428"/>
	<circle cx="471.58" cy="1210.815" r="7.728"/>
	<circle cx="965.528" cy="1387.425" r="9.13"/>
	<circle cx="918.334" cy="916.187" r="7.631"/>
	<circle cx="113.71" cy="1183.818" r="7.364"/>
	<circle cx="1137.849" cy="1540.51" r="8.13"/>
	<circle cx="860.655" cy="225.862" r="8.339"/>
	<circle cx="830.734" cy="1551.905" r="5.726"/>
	<circle cx="960.823" cy="377.163" r="5.312"/>
	<circle cx="1755.261" cy="1172.696" r="6.726"/>
	<circle cx="379.143" cy="1166.613" r="5.638"/>
	<circle cx="1095.345" cy="1557.885" r="5.155"/>
	<circle cx="1259.623" cy="1217.449" r="5.155"/>
	<circle cx="900.715" cy="900.365" r="5.155"/>
	<circle cx="221.57" cy="804.529" r="5.529"/>
	<circle cx="925.924" cy="624.975" r="5.661"/>
	<circle cx="882.443" cy="950.521" r="5.762"/>
	<circle cx="586.998" cy="1185.951" r="7.419"/>
	<circle cx="600.998" cy="1172.618" r="7.419"/>
	<circle cx="944.159" cy="1141.926" r="6.968"/>
	<circle cx="1456.721" cy="559.385" r="5.482"/>
	<circle cx="1465.719" cy="633.317" r="5.219"/>
	<circle cx="859.333" cy="1439.774" r="5.155"/>
	<circle cx="381.556" cy="594.11" r="6.839"/>
	<circle cx="954.433" cy="1276.999" r="6.67"/>
	<circle cx="85.198" cy="1206.175" r="5.155"/>
	<circle cx="337.944" cy="561.412" r="8.007"/>
	<circle cx="799.7" cy="415.165" r="5.407"/>
	<circle cx="1052.636" cy="381.386" r="6.094"/>
	<circle cx="1047.487" cy="1526.284" r="5.975"/>
	<circle cx="1541.158" cy="1175.412" r="5.467"/>
	<circle cx="697.755" cy="449.441" r="6.913"/>
	<circle cx="1604.939" cy="1255.419" r="7.029"/>
	<circle cx="874.142" cy="225.454" r="5.155"/>
	<circle cx="933.569" cy="821.541" r="5.289"/>
	<circle cx="1557.493" cy="1174.837" r="5.155"/>
	<circle cx="1567.993" cy="1166.087" r="5.155"/>
	<circle cx="1522.243" cy="1210.837" r="5.155"/>
	<circle cx="1499.993" cy="1169.837" r="5.155"/>
	<circle cx="1353.94" cy="1172.264" r="7.576"/>
	<circle cx="1442.586" cy="579.731" r="5.746"/>
	<circle cx="1474.086" cy="567.481" r="5.746"/>
	<circle cx="1472.586" cy="582.731" r="5.746"/>
	<circle cx="1485.836" cy="594.731" r="5.746"/>
	<circle cx="1502.586" cy="584.231" r="5.746"/>
	<circle cx="1415.836" cy="601.481" r="5.746"/>
	<circle cx="349.798" cy="1226.375" r="5.761"/>
	<circle cx="280.549" cy="683.971" r="5.196"/>
	<circle cx="286.216" cy="671.304" r="5.196"/>
	<circle cx="295.216" cy="652.304" r="5.196"/>
	<circle cx="328.549" cy="680.638" r="5.196"/>
	<circle cx="124.416" cy="1167.42" r="6.492"/>
	<circle cx="1135.226" cy="452.745" r="5.922"/>
	<circle cx="591.095" cy="1580.912" r="11.658"/>
	<circle cx="864.069" cy="473.581" r="7.794"/>
	<circle cx="946.41" cy="1073.235" r="5.155"/>
	<circle cx="328.622" cy="1028.905" r="5.464"/>
	<circle cx="1255.589" cy="467.401" r="6.431"/>
	<circle cx="1001.382" cy="1509.473" r="5.606"/>
	<circle cx="346.353" cy="616.167" r="8.332"/>
	<circle cx="875.482" cy="1261.372" r="5.155"/>
	<circle cx="1196.487" cy="458.84" r="8.191"/>
	<circle cx="57.454" cy="1171.379" r="6.66"/>
	<circle cx="952.657" cy="370.615" r="5.155"/>
	<circle cx="547.957" cy="1617.886" r="10.94"/>
	<circle cx="406.977" cy="1276.784" r="6.835"/>
	<circle cx="1510.307" cy="1185.729" r="5.155"/>
	<circle cx="419.009" cy="561.842" r="6.469"/>
	<circle cx="578.419" cy="1205.679" r="5.692"/>
	<circle cx="1222.059" cy="1187.74" r="6.785"/>
	<circle cx="1212.059" cy="1169.99" r="6.785"/>
	<circle cx="481.364" cy="1260.999" r="5.155"/>
	<circle cx="328.733" cy="862.391" r="5.346"/>
	<circle cx="1075.182" cy="1518.219" r="7.46"/>
	<circle cx="924.718" cy="301.446" r="5.155"/>
	<circle cx="872.468" cy="294.196" r="5.155"/>
	<circle cx="958.218" cy="332.446" r="5.155"/>
	<circle cx="840.27" cy="1507.194" r="9"/>
	<circle cx="461.26" cy="1264.218" r="6.502"/>
	<circle cx="1041.44" cy="1542.455" r="5.222"/>
	<circle cx="174.164" cy="1255.796" r="9.366"/>
	<circle cx="1577.817" cy="1177.17" r="5.627"/>
	<circle cx="776.854" cy="1504.682" r="6.031"/>
	<circle cx="877.635" cy="898.564" r="9.875"/>
	<circle cx="1047.428" cy="415.268" r="8.021"/>
	<circle cx="878.353" cy="841.982" r="7.593"/>
	<circle cx="1095.117" cy="1512.79" r="5.335"/>
	<circle cx="1330.329" cy="564.886" r="7.632"/>
	<circle cx="1178.567" cy="1614.957" r="5.155"/>
	<circle cx="1048.596" cy="1513.546" r="5.155"/>
	<circle cx="895.963" cy="1141.571" r="5.155"/>
	<circle cx="1199.924" cy="438.467" r="8.858"/>
	<circle cx="1475.432" cy="548.117" r="9.782"/>
	<circle cx="1479.882" cy="605.36" r="5.483"/>
	<circle cx="1362.639" cy="1214.48" r="5.373"/>
	<circle cx="858.37" cy="1497.01" r="7.241"/>
	<circle cx="385.285" cy="582.6" r="5.155"/>
	<circle cx="1191.176" cy="471.237" r="5.166"/>
	<circle cx="690.335" cy="1582.08" r="5.347"/>
	<circle cx="1512.487" cy="562.21" r="5.155"/>
	<circle cx="881.247" cy="750.334" r="5.625"/>
	<circle cx="848.95" cy="1485.419" r="7.488"/>
	<circle cx="854.589" cy="1598.887" r="11.869"/>
	<circle cx="925.329" cy="1134.447" r="5.991"/>
	<circle cx="950.352" cy="1291.628" r="7.475"/>
	<circle cx="1044.455" cy="1627.235" r="6.115"/>
	<circle cx="1088.588" cy="1546.981" r="5.729"/>
	<circle cx="944.894" cy="301.292" r="5.358"/>
	<circle cx="1025.768" cy="1510.389" r="5.155"/>
	<circle cx="921.619" cy="513.836" r="5.155"/>
	<circle cx="734.338" cy="407.319" r="5.255"/>
	<circle cx="362.582" cy="1234.888" r="6.572"/>
	<circle cx="902.436" cy="57.411" r="5.631"/>
	<circle cx="185.86" cy="878.596" r="5.623"/>
	<circle cx="848.807" cy="444.441" r="6.404"/>
	<circle cx="854.437" cy="347.308" r="5.212"/>
	<circle cx="1198.795" cy="1565.452" r="7.174"/>
	<circle cx="1605.881" cy="1228.981" r="5.642"/>
	<circle cx="947.875" cy="1049.04" r="6.931"/>
	<circle cx="1320.324" cy="532.068" r="5.155"/>
	<circle cx="941.141" cy="590.015" r="5.863"/>
	<circle cx="859.947" cy="169.054" r="6.146"/>
	<circle cx="1568.74" cy="746.55" r="3.553"/>
	<circle cx="829.13" cy="1606.772" r="3.438"/>
	<circle cx="985.636" cy="1555.19" r="3.476"/>
	<circle cx="527.855" cy="1000.677" r="3.554"/>
	<circle cx="1177.256" cy="471.742" r="6.094"/>
	<circle cx="1268.245" cy="1221.28" r="4.28"/>
	<circle cx="546.248" cy="1032.091" r="4.912"/>
	<circle cx="96.155" cy="1165.08" r="4.155"/>
	<circle cx="44.655" cy="1165.33" r="4.155"/>
	<circle cx="329.487" cy="664.646" r="4.641"/>
	<circle cx="328.82" cy="650.979" r="4.641"/>
	<circle cx="329.153" cy="696.313" r="4.641"/>
	<circle cx="328.82" cy="711.646" r="4.641"/>
	<circle cx="328.487" cy="727.646" r="4.641"/>
	<circle cx="327.82" cy="742.313" r="4.641"/>
	<circle cx="328.153" cy="756.979" r="4.641"/>
	<circle cx="328.153" cy="775.313" r="4.641"/>
	<circle cx="327.487" cy="788.313" r="4.641"/>
	<circle cx="328.82" cy="814.313" r="4.641"/>
	<circle cx="329.153" cy="838.979" r="4.641"/>
	<circle cx="328.487" cy="850.313" r="4.641"/>
	<circle cx="329.153" cy="875.646" r="4.641"/>
	<circle cx="329.153" cy="903.979" r="4.641"/>
	<circle cx="329.82" cy="926.313" r="4.641"/>
	<circle cx="328.487" cy="972.646" r="4.641"/>
	<circle cx="328.487" cy="991.979" r="4.641"/>
	<circle cx="328.487" cy="1008.646" r="4.641"/>
	<circle cx="327.82" cy="1043.979" r="4.641"/>
	<circle cx="328.153" cy="1060.313" r="4.641"/>
	<circle cx="330.153" cy="638.313" r="4.641"/>
	<circle cx="867.753" cy="1205.692" r="3.468"/>
	<circle cx="1348.141" cy="564.803" r="3.438"/>
	<circle cx="1605.156" cy="830.196" r="3.879"/>
	<circle cx="701.089" cy="396.696" r="5.818"/>
	<circle cx="328.944" cy="802.825" r="5.137"/>
	<circle cx="1122.294" cy="395.613" r="4.214"/>
	<circle cx="973.326" cy="1500.72" r="3.896"/>
	<circle cx="575.508" cy="1592.772" r="6.925"/>
	<circle cx="891.941" cy="79.461" r="3.438"/>
	<circle cx="1403.216" cy="1183.387" r="5.555"/>
	<circle cx="1394.716" cy="1170.387" r="5.555"/>
	<circle cx="1416.216" cy="1168.637" r="5.555"/>
	<circle cx="1237.287" cy="1628.249" r="5.093"/>
	<circle cx="494.387" cy="1170.202" r="5.24"/>
	<circle cx="184.359" cy="1167.494" r="4.004"/>
	<circle cx="1086.799" cy="1515.581" r="3.438"/>
	<circle cx="1172.501" cy="1599.535" r="6.088"/>
	<circle cx="1489.704" cy="943.839" r="3.544"/>
	<circle cx="1656.61" cy="1242.559" r="3.903"/>
	<circle cx="1717.756" cy="1205.708" r="3.633"/>
	<circle cx="383.413" cy="1280.114" r="4.463"/>
	<circle cx="445.163" cy="1169.364" r="4.463"/>
	<circle cx="601.163" cy="1185.614" r="4.463"/>
	<circle cx="442.163" cy="1188.364" r="4.463"/>
	<circle cx="567.163" cy="1215.614" r="4.463"/>
	<circle cx="1046.184" cy="1556.068" r="3.438"/>
	<circle cx="932.829" cy="183.231" r="3.911"/>
	<circle cx="1153.424" cy="1545.644" r="8.269"/>
	<circle cx="938.952" cy="1221.028" r="6.106"/>
	<circle cx="142.344" cy="969.036" r="4.934"/>
	<circle cx="154.677" cy="942.369" r="4.934"/>
	<circle cx="161.677" cy="929.369" r="4.934"/>
	<circle cx="172.677" cy="905.036" r="4.934"/>
	<circle cx="180.01" cy="890.702" r="4.934"/>
	<circle cx="196.677" cy="855.036" r="4.934"/>
	<circle cx="203.344" cy="844.369" r="4.934"/>
	<circle cx="209.01" cy="831.369" r="4.934"/>
	<circle cx="215.344" cy="819.369" r="4.934"/>
	<circle cx="229.01" cy="793.369" r="4.934"/>
	<circle cx="239.677" cy="766.369" r="4.934"/>
	<circle cx="247.677" cy="754.036" r="4.934"/>
	<circle cx="252.344" cy="741.702" r="4.934"/>
	<circle cx="267.677" cy="711.702" r="4.934"/>
	<circle cx="274.677" cy="695.369" r="4.934"/>
	<circle cx="761.629" cy="1506.504" r="5.885"/>
	<circle cx="1488.94" cy="842.634" r="4.2"/>
	<circle cx="926.755" cy="695.198" r="7.527"/>
	<circle cx="342.678" cy="549.742" r="4.586"/>
	<circle cx="935.641" cy="731.153" r="4.236"/>
	<circle cx="886.917" cy="1611.795" r="5.546"/>
	<circle cx="820.571" cy="1547.979" r="5.17"/>
	<circle cx="122.645" cy="1004.746" r="3.697"/>
	<circle cx="1542.136" cy="691.925" r="3.776"/>
	<circle cx="1691.044" cy="1008.436" r="3.626"/>
	<circle cx="1706.544" cy="1037.436" r="3.626"/>
	<circle cx="1711.794" cy="1047.936" r="3.626"/>
	<circle cx="1717.544" cy="1059.686" r="3.626"/>
	<circle cx="1723.794" cy="1071.186" r="3.626"/>
	<circle cx="1729.294" cy="1083.186" r="3.626"/>
	<circle cx="1740.544" cy="1108.436" r="3.626"/>
	<circle cx="1750.794" cy="1128.686" r="3.626"/>
	<circle cx="1770.794" cy="1165.936" r="3.626"/>
	<circle cx="1740.044" cy="1165.436" r="3.626"/>
	<circle cx="1706.544" cy="1166.436" r="3.626"/>
	<circle cx="1526.294" cy="1271.186" r="3.626"/>
	<circle cx="1519.044" cy="1283.936" r="3.626"/>
	<circle cx="1495.294" cy="1285.436" r="3.626"/>
	<circle cx="1476.044" cy="1286.186" r="3.626"/>
	<circle cx="1387.044" cy="1218.436" r="3.626"/>
	<circle cx="1367.544" cy="1269.186" r="3.626"/>
	<circle cx="1556.044" cy="1282.436" r="3.626"/>
	<circle cx="1588.794" cy="1276.936" r="3.626"/>
	<circle cx="1608.544" cy="1270.686" r="3.626"/>
	<circle cx="1727.044" cy="1212.936" r="3.626"/>
	<circle cx="1755.794" cy="1187.436" r="3.626"/>
	<circle cx="715.322" cy="1626.184" r="4.347"/>
	<circle cx="838.035" cy="1529.588" r="7.328"/>
	<circle cx="913.007" cy="635.207" r="3.438"/>
	<circle cx="1560.419" cy="730.816" r="4.21"/>
	<circle cx="1563.419" cy="738.316" r="4.21"/>
	<circle cx="948.654" cy="1263.126" r="4.766"/>
	<circle cx="721.957" cy="1515.677" r="3.573"/>
	<circle cx="1365.018" cy="840.305" r="4.174"/>
	<circle cx="1330.987" cy="541.136" r="4.879"/>
	<circle cx="1397.793" cy="1201.105" r="4.423"/>
	<circle cx="947.015" cy="529.429" r="3.615"/>
	<circle cx="999" cy="421.003" r="4.482"/>
	<circle cx="901.897" cy="834.2" r="4.231"/>
	<circle cx="85.615" cy="1172.439" r="4.324"/>
	<circle cx="959.042" cy="1422.588" r="3.76"/>
	<circle cx="346.353" cy="1234.905" r="3.438"/>
	<circle cx="372.804" cy="1219.458" r="3.774"/>
	<circle cx="947.833" cy="1155.745" r="4.67"/>
	<circle cx="1101.623" cy="1621.248" r="3.485"/>
	<circle cx="1382.084" cy="803.849" r="4.635"/>
	<circle cx="368.921" cy="609.635" r="7.039"/>
	<circle cx="845.31" cy="1518.565" r="3.438"/>
	<circle cx="878.763" cy="1629.615" r="3.438"/>
	<circle cx="386.854" cy="1273.001" r="3.438"/>
	<circle cx="1093.289" cy="1617.91" r="4.564"/>
	<circle cx="642.608" cy="467.991" r="4.359"/>
	<circle cx="260.562" cy="723.322" r="5.277"/>
	<circle cx="930.643" cy="643.402" r="4.154"/>
	<circle cx="209.796" cy="1171.873" r="4.472"/>
	<circle cx="248.296" cy="1168.373" r="4.472"/>
	<circle cx="240.046" cy="1272.123" r="4.472"/>
	<circle cx="97.546" cy="1217.623" r="4.472"/>
	<circle cx="273.546" cy="1284.873" r="4.472"/>
	<circle cx="297.546" cy="1284.873" r="4.472"/>
	<circle cx="340.296" cy="1257.873" r="4.472"/>
	<circle cx="365.796" cy="1284.123" r="4.472"/>
	<circle cx="877.291" cy="1419.786" r="3.438"/>
	<circle cx="1310.04" cy="953.245" r="4.61"/>
	<circle cx="971.329" cy="1451.934" r="5.4"/>
	<circle cx="682.096" cy="1537.096" r="3.438"/>
	<circle cx="348.135" cy="1205.292" r="3.438"/>
	<circle cx="1712.075" cy="1224.824" r="5.689"/>
	<circle cx="556.76" cy="1171.806" r="9.761"/>
	<circle cx="845.711" cy="431.424" r="5.228"/>
	<circle cx="951.177" cy="1394.529" r="3.438"/>
	<circle cx="798.543" cy="386.232" r="3.438"/>
	<circle cx="431.837" cy="1181.327" r="3.641"/>
	<circle cx="1489.657" cy="985.368" r="3.627"/>
	<circle cx="1489.523" cy="876.538" r="3.66"/>
	<circle cx="873.052" cy="1006.048" r="3.438"/>
	<circle cx="1253.941" cy="1599.785" r="3.438"/>
	<circle cx="905.286" cy="267.79" r="3.539"/>
	<circle cx="1214.744" cy="485.219" r="3.438"/>
	<circle cx="708.039" cy="447.105" r="3.633"/>
	<circle cx="1757.292" cy="1145.32" r="3.779"/>
	<circle cx="895.475" cy="314.264" r="3.763"/>
	<circle cx="891.725" cy="325.764" r="3.763"/>
	<circle cx="154.411" cy="1165.27" r="4.339"/>
	<circle cx="811.377" cy="1626.157" r="5.308"/>
	<circle cx="660.463" cy="1546.811" r="4.436"/>
	<circle cx="1701.78" cy="1027.509" r="5.024"/>
	<circle cx="1485.728" cy="1167.378" r="3.438"/>
	<circle cx="1763.664" cy="1179.044" r="3.806"/>
	<circle cx="78.135" cy="1170.367" r="3.438"/>
	<circle cx="234.743" cy="777.378" r="5.567"/>
	<circle cx="881.103" cy="612.152" r="4.016"/>
	<circle cx="896.394" cy="194.414" r="4.312"/>
	<circle cx="329.208" cy="939.139" r="4.872"/>
	<circle cx="336.335" cy="1268.155" r="3.537"/>
	<circle cx="1630.129" cy="1212.719" r="3.438"/>
	<circle cx="1536.776" cy="1278.964" r="7.675"/>
	<circle cx="1662.389" cy="946.965" r="3.799"/>
	<circle cx="935.672" cy="1135.904" r="3.438"/>
	<circle cx="1440.949" cy="676.101" r="3.594"/>
	<circle cx="326.999" cy="1075.305" r="4.05"/>
	<circle cx="328.333" cy="1089.638" r="4.05"/>
	<circle cx="328.999" cy="1105.971" r="4.05"/>
	<circle cx="327.999" cy="1118.638" r="4.05"/>
	<circle cx="327.666" cy="1131.971" r="4.05"/>
	<circle cx="328.333" cy="1144.638" r="4.05"/>
	<circle cx="328.333" cy="1158.305" r="4.05"/>
	<circle cx="97.274" cy="1059.901" r="4.916"/>
	<circle cx="112.607" cy="1031.234" r="4.916"/>
	<circle cx="119.94" cy="1016.901" r="4.916"/>
	<circle cx="132.607" cy="990.234" r="4.916"/>
	<circle cx="138.274" cy="978.567" r="4.916"/>
	<circle cx="146.94" cy="957.567" r="4.916"/>
	<circle cx="1649.64" cy="1164.772" r="3.792"/>
	<circle cx="945.068" cy="1088.628" r="6.917"/>
	<circle cx="327.081" cy="826.039" r="3.747"/>
	<circle cx="1486.51" cy="682.977" r="4.599"/>
	<circle cx="71.94" cy="1110.303" r="4.288"/>
	<circle cx="451.272" cy="1203.205" r="4.053"/>
	<circle cx="163.991" cy="1165.246" r="4.315"/>
	<circle cx="1264.858" cy="472.285" r="4.046"/>
	<circle cx="1343.692" cy="1164.868" r="3.876"/>
	<circle cx="578.16" cy="1167.095" r="6.054"/>
	<circle cx="1186.183" cy="464.23" r="3.438"/>
	<circle cx="329.187" cy="915.415" r="4.892"/>
	<circle cx="991.658" cy="368.106" r="3.597"/>
	<circle cx="196.988" cy="1166.748" r="3.438"/>
	<circle cx="844.668" cy="1418.901" r="5.438"/>
	<circle cx="954.448" cy="1481.697" r="3.438"/>
	<circle cx="379.864" cy="1203.079" r="3.438"/>
	<circle cx="1331.104" cy="1166.127" r="5.129"/>
	<circle cx="835.421" cy="1544.03" r="3.438"/>
	<circle cx="1486.177" cy="900.78" r="4.231"/>
	<circle cx="419.062" cy="1270.39" r="4.177"/>
	<circle cx="319.466" cy="1282.454" r="8.108"/>
	<circle cx="873.819" cy="1209.288" r="3.584"/>
	<circle cx="327.992" cy="887.274" r="4.78"/>
	<circle cx="1667.937" cy="1248.835" r="5.166"/>
	<circle cx="411.645" cy="591.423" r="3.443"/>
	<circle cx="1286.353" cy="1614.77" r="3.438"/>
	<circle cx="1084.42" cy="1524.908" r="3.946"/>
	<circle cx="1320.426" cy="1255.726" r="4.432"/>
	<circle cx="81.55" cy="1093.026" r="5.21"/>
	<circle cx="91.55" cy="1077.359" r="5.21"/>
	<circle cx="65.883" cy="1126.692" r="5.21"/>
	<circle cx="60.55" cy="1141.026" r="5.21"/>
	<circle cx="870.778" cy="578.647" r="3.986"/>
	<circle cx="870.099" cy="1441.311" r="3.492"/>
	<circle cx="920.323" cy="764.289" r="3.819"/>
	<circle cx="1486.783" cy="1071.045" r="4.849"/>
	<circle cx="1310.287" cy="1251.369" r="3.438"/>
	<circle cx="1423.945" cy="1281.319" r="6.085"/>
	<circle cx="195.347" cy="1255.569" r="3.438"/>
	<circle cx="100.013" cy="1179.075" r="7.131"/>
	<circle cx="1621.401" cy="1268.912" r="4.251"/>
	<circle cx="1060.352" cy="1626.148" r="3.438"/>
	<circle cx="587.041" cy="1198.946" r="5.247"/>
	<circle cx="1395.633" cy="559.462" r="7.428"/>
	<circle cx="506.796" cy="1251.179" r="3.594"/>
	<circle cx="333.964" cy="590.819" r="5.567"/>
	<circle cx="368.776" cy="666.894" r="5.502"/>
	<circle cx="980.392" cy="1564.466" r="4.682"/>
	<circle cx="798.691" cy="1513.422" r="9.184"/>
	<circle cx="1375.305" cy="590.495" r="3.45"/>
	<circle cx="108.619" cy="1210.904" r="4.207"/>
	<circle cx="586.47" cy="1603.433" r="3.438"/>
	<circle cx="938.903" cy="828.448" r="3.438"/>
	<circle cx="595.444" cy="1140.231" r="3.618"/>
	<circle cx="1097.741" cy="1547.486" r="3.438"/>
	<circle cx="1430.796" cy="592.626" r="7.357"/>
	<circle cx="110.073" cy="1219.772" r="3.783"/>
	<circle cx="139.981" cy="1165.256" r="4.327"/>
	<circle cx="895.899" cy="63.697" r="3.438"/>
	<circle cx="709.51" cy="1607.078" r="3.438"/>
	<circle cx="856.804" cy="1305.092" r="4.606"/>
	<circle cx="1766.319" cy="1154.873" r="4.209"/>
	<circle cx="1538.337" cy="683.892" r="3.706"/>
	<circle cx="1454.753" cy="651.151" r="5.18"/>
	<circle cx="1532.445" cy="1197.995" r="7.02"/>
	<circle cx="731.257" cy="1628.235" r="5.125"/>
	<circle cx="841.381" cy="1607.279" r="2.955"/>
	<circle cx="976.405" cy="411.62" r="2.526"/>
	<circle cx="537.947" cy="1021.113" r="3.736"/>
	<circle cx="1574.704" cy="760.438" r="4.217"/>
	<circle cx="58.853" cy="1180.222" r="2.293"/>
	<circle cx="713.293" cy="1520.961" r="3.395"/>
	<circle cx="917.313" cy="54.622" r="2.57"/>
	<circle cx="189.894" cy="1258.025" r="2.542"/>
	<circle cx="380.083" cy="697.827" r="2.524"/>
	<circle cx="206.803" cy="1239.988" r="2.902"/>
	<circle cx="416.586" cy="758.439" r="2.314"/>
	<circle cx="1209.519" cy="447.282" r="4.171"/>
	<circle cx="1080.047" cy="438.171" r="3.38"/>
	<circle cx="930.415" cy="599.507" r="2.293"/>
	<circle cx="793.842" cy="405.119" r="2.293"/>
	<circle cx="103.674" cy="1040.957" r="2.415"/>
	<circle cx="873.214" cy="926.426" r="2.293"/>
	<circle cx="951.371" cy="1222.159" r="6.365"/>
	<circle cx="1079.933" cy="1531.038" r="2.293"/>
	<circle cx="1343.522" cy="531.927" r="3.216"/>
	<circle cx="1209.763" cy="1150.564" r="3.33"/>
	<circle cx="950.151" cy="306.851" r="2.293"/>
	<circle cx="326.932" cy="623.141" r="7.02"/>
	<circle cx="917.624" cy="926.337" r="2.544"/>
	<circle cx="1086.879" cy="1504.007" r="3.061"/>
	<circle cx="353.244" cy="628.165" r="2.897"/>
	<circle cx="971.608" cy="411.159" r="2.293"/>
	<circle cx="765.963" cy="429.756" r="3.371"/>
	<circle cx="873.529" cy="586.248" r="4.097"/>
	<circle cx="437.131" cy="810.019" r="4.961"/>
	<circle cx="431.465" cy="798.353" r="4.961"/>
	<circle cx="424.131" cy="782.353" r="4.961"/>
	<circle cx="417.131" cy="769.019" r="4.961"/>
	<circle cx="408.798" cy="749.686" r="4.961"/>
	<circle cx="402.798" cy="736.353" r="4.961"/>
	<circle cx="394.465" cy="721.686" r="4.961"/>
	<circle cx="388.131" cy="707.019" r="4.961"/>
	<circle cx="378.798" cy="687.019" r="4.961"/>
	<circle cx="372.798" cy="676.019" r="4.961"/>
	<circle cx="356.465" cy="640.353" r="4.961"/>
	<circle cx="902.717" cy="1610.42" r="4.79"/>
	<circle cx="1035.759" cy="1532.903" r="4.409"/>
	<circle cx="1485.467" cy="1113.555" r="3.54"/>
	<circle cx="502.012" cy="1247.749" r="2.293"/>
	<circle cx="569.347" cy="1177.858" r="2.293"/>
	<circle cx="1521.443" cy="661.318" r="2.519"/>
	<circle cx="789.226" cy="425.532" r="4.381"/>
	<circle cx="1484.887" cy="935.368" r="2.941"/>
	<circle cx="927.873" cy="911.609" r="2.293"/>
	<circle cx="655.11" cy="1542.085" r="2.704"/>
	<circle cx="1039.054" cy="423.272" r="3.202"/>
	<circle cx="872.832" cy="236.963" r="6.429"/>
	<circle cx="594.538" cy="1623.629" r="2.744"/>
	<circle cx="345.507" cy="1242.241" r="3.946"/>
	<circle cx="1034.961" cy="419.605" r="2.293"/>
	<circle cx="1236.454" cy="1205.749" r="5.182"/>
	<circle cx="1498.06" cy="1271.837" r="3.735"/>
	<circle cx="1167.426" cy="1558.42" r="6.717"/>
	<circle cx="699.091" cy="406.868" r="4.549"/>
	<circle cx="330.215" cy="600.1" r="4.443"/>
	<circle cx="747.607" cy="427.05" r="2.293"/>
	<circle cx="1356.062" cy="1181.902" r="2.293"/>
	<circle cx="526.731" cy="1614.199" r="2.685"/>
	<circle cx="1410.487" cy="1180.433" r="2.293"/>
	<circle cx="306.337" cy="633.102" r="3.004"/>
	<circle cx="546.454" cy="482.749" r="6.521"/>
	<circle cx="843.378" cy="1475.142" r="2.334"/>
	<circle cx="1509.4" cy="1272.717" r="7.639"/>
	<circle cx="1363.906" cy="1228.56" r="3.133"/>
	<circle cx="1220.805" cy="1570.623" r="3.714"/>
	<circle cx="1571.642" cy="1193.85" r="5.654"/>
	<circle cx="1229.826" cy="1116.979" r="5.502"/>
	<circle cx="1524.267" cy="1193.539" r="2.293"/>
	<circle cx="933.988" cy="366.39" r="2.293"/>
	<circle cx="1058.742" cy="426.802" r="2.707"/>
	<circle cx="235.461" cy="1279.768" r="3.125"/>
	<circle cx="865.151" cy="1008.077" r="2.744"/>
	<circle cx="1486.708" cy="671.589" r="4.813"/>
	<circle cx="866.246" cy="573.593" r="2.733"/>
	<circle cx="112.188" cy="1229.274" r="4.864"/>
	<circle cx="936.914" cy="111.828" r="5.473"/>
	<circle cx="931.914" cy="99.578" r="5.473"/>
	<circle cx="1261.927" cy="1048.164" r="4.033"/>
	<circle cx="1268.927" cy="1034.414" r="4.033"/>
	<circle cx="1274.427" cy="1022.914" r="4.033"/>
	<circle cx="1288.427" cy="997.914" r="4.033"/>
	<circle cx="1295.427" cy="983.414" r="4.033"/>
	<circle cx="1300.427" cy="972.414" r="4.033"/>
	<circle cx="1304.677" cy="961.664" r="4.033"/>
	<circle cx="1315.427" cy="941.664" r="4.033"/>
	<circle cx="1319.677" cy="930.914" r="4.033"/>
	<circle cx="1326.177" cy="920.164" r="4.033"/>
	<circle cx="1334.177" cy="901.664" r="4.033"/>
	<circle cx="1338.427" cy="890.914" r="4.033"/>
	<circle cx="1344.677" cy="882.414" r="4.033"/>
	<circle cx="1349.427" cy="869.664" r="4.033"/>
	<circle cx="1354.427" cy="858.914" r="4.033"/>
	<circle cx="1359.677" cy="848.914" r="4.033"/>
	<circle cx="1369.677" cy="830.664" r="4.033"/>
	<circle cx="1374.177" cy="819.164" r="4.033"/>
	<circle cx="1387.177" cy="792.664" r="4.033"/>
	<circle cx="1391.677" cy="782.914" r="4.033"/>
	<circle cx="1397.427" cy="771.414" r="4.033"/>
	<circle cx="1408.677" cy="749.164" r="4.033"/>
	<circle cx="1415.427" cy="735.914" r="4.033"/>
	<circle cx="1421.177" cy="722.164" r="4.033"/>
	<circle cx="1487.927" cy="734.914" r="4.033"/>
	<circle cx="1488.177" cy="747.914" r="4.033"/>
	<circle cx="1487.177" cy="761.414" r="4.033"/>
	<circle cx="1487.177" cy="777.164" r="4.033"/>
	<circle cx="1487.427" cy="797.664" r="4.033"/>
	<circle cx="1487.427" cy="832.164" r="4.033"/>
	<circle cx="1486.927" cy="854.914" r="4.033"/>
	<circle cx="1487.677" cy="867.414" r="4.033"/>
	<circle cx="1488.177" cy="913.664" r="4.033"/>
	<circle cx="1488.427" cy="954.164" r="4.033"/>
	<circle cx="1488.677" cy="924.414" r="4.033"/>
	<circle cx="1489.177" cy="884.164" r="4.033"/>
	<circle cx="1487.677" cy="997.914" r="4.033"/>
	<circle cx="1488.177" cy="1010.664" r="4.033"/>
	<circle cx="1488.177" cy="1024.414" r="4.033"/>
	<circle cx="1489.177" cy="1037.164" r="4.033"/>
	<circle cx="1488.177" cy="1048.914" r="4.033"/>
	<circle cx="1488.177" cy="1059.164" r="4.033"/>
	<circle cx="1487.927" cy="1085.664" r="4.033"/>
	<circle cx="1489.177" cy="1103.414" r="4.033"/>
	<circle cx="1489.427" cy="1124.414" r="4.033"/>
	<circle cx="1487.927" cy="1137.164" r="4.033"/>
	<circle cx="1487.677" cy="1150.664" r="4.033"/>
	<circle cx="1489.177" cy="1160.414" r="4.033"/>
	<circle cx="1427.927" cy="711.414" r="4.033"/>
	<circle cx="1432.927" cy="698.164" r="4.033"/>
	<circle cx="1488.677" cy="659.164" r="4.033"/>
	<circle cx="1488.427" cy="647.414" r="4.033"/>
	<circle cx="1507.927" cy="624.164" r="4.033"/>
	<circle cx="1513.677" cy="637.414" r="4.033"/>
	<circle cx="1516.927" cy="647.914" r="4.033"/>
	<circle cx="1527.927" cy="667.414" r="4.033"/>
	<circle cx="1532.677" cy="677.164" r="4.033"/>
	<circle cx="1545.177" cy="703.914" r="4.033"/>
	<circle cx="1551.177" cy="714.414" r="4.033"/>
	<circle cx="1554.677" cy="724.414" r="4.033"/>
	<circle cx="1579.677" cy="771.164" r="4.033"/>
	<circle cx="1584.677" cy="783.164" r="4.033"/>
	<circle cx="1589.927" cy="794.164" r="4.033"/>
	<circle cx="1595.177" cy="805.914" r="4.033"/>
	<circle cx="1601.177" cy="818.414" r="4.033"/>
	<circle cx="1611.177" cy="839.164" r="4.033"/>
	<circle cx="1616.677" cy="849.414" r="4.033"/>
	<circle cx="1621.677" cy="858.914" r="4.033"/>
	<circle cx="1625.177" cy="870.164" r="4.033"/>
	<circle cx="1634.427" cy="886.664" r="4.033"/>
	<circle cx="1639.427" cy="897.664" r="4.033"/>
	<circle cx="1645.427" cy="910.414" r="4.033"/>
	<circle cx="1650.927" cy="921.664" r="4.033"/>
	<circle cx="1656.927" cy="932.664" r="4.033"/>
	<circle cx="1667.177" cy="956.414" r="4.033"/>
	<circle cx="1674.427" cy="968.164" r="4.033"/>
	<circle cx="1679.677" cy="981.164" r="4.033"/>
	<circle cx="1685.427" cy="992.914" r="4.033"/>
	<circle cx="1698.177" cy="1018.164" r="4.033"/>
	<circle cx="1489.177" cy="632.914" r="4.033"/>
	<circle cx="1470.177" cy="620.414" r="4.033"/>
	<circle cx="1489.177" cy="624.164" r="4.033"/>
	<circle cx="1438.677" cy="686.164" r="4.033"/>
	<circle cx="1256.927" cy="1061.664" r="4.033"/>
	<circle cx="1250.427" cy="1076.414" r="4.033"/>
	<circle cx="1241.927" cy="1090.414" r="4.033"/>
	<circle cx="1236.177" cy="1105.164" r="4.033"/>
	<circle cx="1223.177" cy="1130.414" r="4.033"/>
	<circle cx="1217.677" cy="1143.664" r="4.033"/>
	<circle cx="1632.323" cy="876.672" r="2.834"/>
	<circle cx="566.461" cy="1594.54" r="2.293"/>
	<circle cx="912.492" cy="55.262" r="2.293"/>
	<circle cx="458.13" cy="1219.121" r="4.448"/>
	<circle cx="1122.119" cy="1630.983" r="2.363"/>
	<circle cx="1178.472" cy="1623.567" r="3.455"/>
	<circle cx="1204.87" cy="467.897" r="4.151"/>
	<circle cx="937.951" cy="186.732" r="2.293"/>
	<circle cx="189.74" cy="1170.764" r="2.293"/>
	<circle cx="856.639" cy="450.782" r="2.377"/>
	<circle cx="952.398" cy="556.017" r="5.157"/>
	<circle cx="1490.391" cy="786.474" r="2.679"/>
	<circle cx="1080.109" cy="1556.29" r="3.53"/>
	<circle cx="880.502" cy="596.1" r="7.974"/>
	<circle cx="859.761" cy="338.219" r="4.391"/>
	<circle cx="917.391" cy="505.375" r="2.899"/>
	<circle cx="1090.037" cy="440.365" r="4.889"/>
	<circle cx="1286.267" cy="1629.586" r="3.755"/>
	<circle cx="364.184" cy="1219.179" r="4.85"/>
	<circle cx="832.906" cy="1518.199" r="4.13"/>
	<circle cx="165.358" cy="917.805" r="4.24"/>
	<circle cx="1749.112" cy="1117.273" r="2.629"/>
	<circle cx="845.026" cy="1375.702" r="5.694"/>
	<circle cx="1313.662" cy="524.332" r="2.293"/>
	<circle cx="900.686" cy="510.432" r="2.293"/>
	<circle cx="51.307" cy="1148.58" r="2.964"/>
	<circle cx="52.557" cy="1157.33" r="2.964"/>
	<circle cx="1102.836" cy="387.846" r="2.463"/>
	<circle cx="601.987" cy="1161.165" r="2.723"/>
	<circle cx="1035.377" cy="1525.886" r="2.619"/>
	<circle cx="948.729" cy="314.626" r="3.796"/>
	<circle cx="856.588" cy="178.657" r="2.799"/>
	<circle cx="1735.193" cy="1095.61" r="5.493"/>
	<circle cx="942.323" cy="860.51" r="4.473"/>
	<circle cx="915.4" cy="1607.935" r="2.293"/>
	<circle cx="571.881" cy="1090.257" r="4.164"/>
	<circle cx="568.548" cy="1080.59" r="4.164"/>
	<circle cx="561.881" cy="1067.257" r="4.164"/>
	<circle cx="556.214" cy="1054.59" r="4.164"/>
	<circle cx="550.214" cy="1044.257" r="4.164"/>
	<circle cx="578.881" cy="1102.59" r="4.164"/>
	<circle cx="586.214" cy="1118.257" r="4.164"/>
	<circle cx="592.548" cy="1129.257" r="4.164"/>
	<circle cx="604.881" cy="1151.924" r="4.164"/>
	<circle cx="613.381" cy="1166.424" r="4.164"/>
	<circle cx="1539.548" cy="1166.998" r="3.1"/>
	<circle cx="862.399" cy="257.013" r="3.243"/>
	<circle cx="857.598" cy="248.666" r="3.437"/>
	<circle cx="853.366" cy="182.601" r="2.293"/>
	<circle cx="1488.569" cy="693.068" r="4.667"/>
	<circle cx="1487.569" cy="705.068" r="4.667"/>
	<circle cx="1487.819" cy="720.568" r="4.667"/>
	<circle cx="975.472" cy="1615.302" r="2.293"/>
	<circle cx="192.066" cy="868.146" r="4.59"/>
	<circle cx="852.159" cy="1423.083" r="3.142"/>
	<circle cx="1486.861" cy="554.767" r="3.441"/>
	<circle cx="1370.297" cy="1214.13" r="2.293"/>
	<circle cx="1457.183" cy="578.37" r="3.717"/>
	<circle cx="649.137" cy="469.268" r="2.293"/>
	<circle cx="1061.502" cy="385.303" r="3.402"/>
	<circle cx="853.46" cy="368.261" r="12.08"/>
	<circle cx="954.382" cy="1582.844" r="5.38"/>
	<circle cx="870.779" cy="1255.473" r="2.39"/>
	<circle cx="936.497" cy="911.507" r="6.2"/>
	<circle cx="631.343" cy="431.395" r="3.336"/>
	<circle cx="966.515" cy="203.863" r="3.384"/>
	<circle cx="435.366" cy="1173.975" r="3.412"/>
	<circle cx="358.06" cy="652.245" r="2.607"/>
	<circle cx="948.029" cy="155.958" r="3.687"/>
	<circle cx="986.449" cy="365.358" r="2.293"/>
	<circle cx="971.165" cy="1359.256" r="3.422"/>
	<circle cx="190.11" cy="1228.38" r="2.38"/>
	<circle cx="954.705" cy="1125.948" r="2.902"/>
	<circle cx="1490.115" cy="1093.823" r="3.264"/>
	<circle cx="1489.41" cy="931.971" r="2.716"/>
	<circle cx="933.668" cy="789.595" r="4.17"/>
	<circle cx="1402.397" cy="1193.038" r="3.705"/>
	<circle cx="867.355" cy="956.966" r="2.475"/>
	<circle cx="797.419" cy="399.92" r="2.43"/>
	<circle cx="724.988" cy="1510.655" r="2.293"/>
	<circle cx="827.357" cy="1501.378" r="2.739"/>
	<circle cx="185.259" cy="1177.111" r="5.476"/>
	<circle cx="200.009" cy="1195.111" r="5.476"/>
	<circle cx="1519.225" cy="591.004" r="5.105"/>
	<circle cx="358.09" cy="1225.381" r="2.591"/>
	<circle cx="880.887" cy="99.878" r="3.597"/>
	<circle cx="896.137" cy="97.628" r="3.597"/>
	<circle cx="888.637" cy="89.128" r="3.597"/>
	<circle cx="900.387" cy="42.878" r="3.597"/>
	<circle cx="913.887" cy="40.878" r="3.597"/>
	<circle cx="922.887" cy="46.878" r="3.597"/>
	<circle cx="925.637" cy="58.128" r="3.597"/>
	<circle cx="1088.324" cy="1571.121" r="4.014"/>
	<circle cx="1753.031" cy="1140.994" r="2.293"/>
	<circle cx="1280.924" cy="537.411" r="3.895"/>
	<circle cx="330.698" cy="959.939" r="3.381"/>
	<circle cx="1158.625" cy="1629.384" r="3.961"/>
	<circle cx="1506.886" cy="615.136" r="3.49"/>
	<circle cx="992.88" cy="1551.655" r="4.585"/>
	<circle cx="1488.637" cy="973.152" r="4.637"/>
	<circle cx="1517.723" cy="1256.991" r="7.557"/>
	<circle cx="889.547" cy="486.742" r="2.472"/>
	<circle cx="436.935" cy="1263.246" r="2.293"/>
	<circle cx="533.016" cy="1009.233" r="4.472"/>
	<circle cx="523.349" cy="987.9" r="4.472"/>
	<circle cx="514.682" cy="969.9" r="4.472"/>
	<circle cx="506.349" cy="954.9" r="4.472"/>
	<circle cx="500.016" cy="941.233" r="4.472"/>
	<circle cx="495.016" cy="926.567" r="4.472"/>
	<circle cx="486.349" cy="911.9" r="4.472"/>
	<circle cx="479.682" cy="898.567" r="4.472"/>
	<circle cx="474.349" cy="885.567" r="4.472"/>
	<circle cx="467.682" cy="873.233" r="4.472"/>
	<circle cx="458.016" cy="851.567" r="4.472"/>
	<circle cx="450.682" cy="837.233" r="4.472"/>
	<circle cx="445.682" cy="825.567" r="4.472"/>
	<circle cx="979.866" cy="1555.164" r="2.293"/>
	<circle cx="936.112" cy="889.252" r="2.517"/>
	<circle cx="1513.535" cy="548.665" r="4.127"/>
	<circle cx="1258.981" cy="476.294" r="3.068"/>
	<circle cx="880.663" cy="105.765" r="2.293"/>
	<circle cx="351.067" cy="1163.837" r="2.915"/>
	<circle cx="865.976" cy="549.842" r="3.539"/>
	<circle cx="321.773" cy="546.72" r="2.293"/>
	<circle cx="900.64" cy="1033.87" r="3.659"/>
	<circle cx="1361.406" cy="1253.021" r="2.293"/>
	<circle cx="1295.105" cy="1246.707" r="2.77"/>
	<circle cx="939.442" cy="837.488" r="5.618"/>
	<circle cx="417.38" cy="591.507" r="2.293"/>
	<circle cx="637.384" cy="473.887" r="3.518"/>
	<circle cx="1069.262" cy="1564.744" r="5.139"/>
	<circle cx="955.754" cy="172.11" r="4.712"/>
	<circle cx="596.592" cy="480.216" r="3.257"/>
	<circle cx="1682.386" cy="1245.808" r="2.33"/>
	<circle cx="1391.508" cy="570.395" r="2.293"/>
	<circle cx="376.725" cy="586.359" r="2.293"/>
	<circle cx="884.038" cy="686.347" r="4.623"/>
	<circle cx="849.403" cy="1382.383" r="2.293"/>
	<circle cx="255.655" cy="1279.077" r="5.777"/>
	<circle cx="1717.455" cy="1173.163" r="2.293"/>
	<circle cx="219.88" cy="812.651" r="2.767"/>
	<circle cx="900.758" cy="1620.706" r="5.681"/>
	<circle cx="888.614" cy="314.681" r="3.11"/>
	<circle cx="383.043" cy="603.853" r="3.017"/>
	<circle cx="1328.056" cy="907.051" r="2.32"/>
	<circle cx="889.042" cy="1480.814" r="7.484"/>
	<circle cx="820.16" cy="1509.453" r="2.293"/>
	<circle cx="583.779" cy="457.154" r="3.604"/>
	<circle cx="429.93" cy="1175.707" r="2.293"/>
	<circle cx="994.218" cy="1628.735" r="2.293"/>
	<circle cx="881.978" cy="214.551" r="2.293"/>
	<circle cx="907.623" cy="627.241" r="6.177"/>
	<circle cx="896.43" cy="1613.682" r="2.293"/>
	<circle cx="893.638" cy="897.767" r="2.383"/>
	<circle cx="1400.504" cy="762.116" r="4.561"/>
	<circle cx="424.696" cy="1165.455" r="2.293"/>
	<circle cx="727.721" cy="396.313" r="3.701"/>
	<circle cx="971.22" cy="1573.988" r="8.539"/>
	<circle cx="1452.212" cy="663.044" r="3.205"/>
	<circle cx="961.034" cy="1302.835" r="2.386"/>
	<circle cx="301.79" cy="635.821" r="2.293"/>
	<circle cx="1485.679" cy="892.936" r="3.629"/>
	<circle cx="1280.746" cy="1006.226" r="2.773"/>
	<circle cx="256.153" cy="732.502" r="4.908"/>
	<circle cx="832.693" cy="367.353" r="4.615"/>
	<circle cx="1192.725" cy="426.495" r="3.62"/>
	<circle cx="323.556" cy="608.938" r="4.015"/>
	<circle cx="1661.099" cy="941.011" r="2.293"/>
	<circle cx="873.244" cy="1043.506" r="2.293"/>
	<circle cx="331.55" cy="1271.487" r="2.293"/>
	<circle cx="863.944" cy="1124.107" r="5.122"/>
	<circle cx="1717.998" cy="1212.199" r="2.862"/>
	<circle cx="973.898" cy="1629.106" r="2.634"/>
	<circle cx="1487.127" cy="817.289" r="5.18"/>
	<circle cx="908.4" cy="834.713" r="2.293"/>
	<circle cx="439.441" cy="1271.978" r="3.186"/>
	<circle cx="1390.6" cy="1207.766" r="2.293"/>
	<circle cx="950.244" cy="261.499" r="2.604"/>
	<circle cx="1167.011" cy="1567.604" r="2.421"/>
	<circle cx="1294.555" cy="1168.936" r="7.742"/>
	<circle cx="1323.636" cy="1164.391" r="2.537"/>
	<circle cx="811.617" cy="1605.972" r="2.492"/>
	<circle cx="381.636" cy="609.926" r="3.217"/>
	<circle cx="341.636" cy="601.676" r="3.217"/>
	<circle cx="334.386" cy="611.176" r="3.217"/>
	<circle cx="310.386" cy="620.176" r="3.217"/>
	<circle cx="350.386" cy="562.426" r="3.217"/>
	<circle cx="362.136" cy="560.676" r="3.217"/>
	<circle cx="353.636" cy="552.926" r="3.217"/>
	<circle cx="330.636" cy="541.426" r="3.217"/>
	<circle cx="328.636" cy="551.176" r="3.217"/>
	<circle cx="292.886" cy="567.176" r="3.217"/>
	<circle cx="290.636" cy="580.926" r="3.217"/>
	<circle cx="299.886" cy="574.676" r="3.217"/>
	<circle cx="1523.392" cy="652.817" r="3.663"/>
	<circle cx="1268.816" cy="1169.173" r="6.71"/>
	<circle cx="465.716" cy="862.824" r="3.609"/>
	<circle cx="1633.274" cy="1167.848" r="6.913"/>
	<circle cx="1752.969" cy="1163.972" r="2.293"/>
	<circle cx="889.696" cy="1424.162" r="4.714"/>
	<circle cx="941.672" cy="956.883" r="3.401"/>
</g>
</svg>
